<svg xmlns="http://www.w3.org/2000/svg" viewBox="0 0 196.42 74.32"><defs><style>.cls-1{fill:#ff5900;}.cls-2,.cls-3{fill:#fff;}.cls-3{fill-rule:evenodd;}</style></defs><title>icafal-logo</title><g id="Capa_1" data-name="Capa 1"><path class="cls-1" d="M181.9,0h5.86a8.63,8.63,0,0,1,8.63,8.63v9.8l.06,55.89H8.63A8.63,8.63,0,0,1,0,65.69V0Z"/><path class="cls-2" d="M95.91,54.78,96,46c-7.06,1.26-14.8,2.6-14.87,8.35,0,3.07,2.06,4.81,5,4.81,3.31,0,7.5-2.6,9.73-4.33Zm10.49,2.58v5.77c0,1.13,0,2.11,0,2.41l-8.46,0H96.2V62.06c-4.26,2.66-8.26,4.31-13.75,4.31-8,0-11.9-5.28-11.83-10.88.12-9.3,8.32-14.19,25.49-16.08l0-3.47c0-3.16-2.66-4.89-6.39-4.89-4.92,0-7.67,2.45-9.74,5l-6.73-4.81c2.77-4.34,10.11-7.65,16.56-7.49,11.88.24,16.92,4.26,16.76,16.56l-.21,17Z"/><path class="cls-2" d="M159,54.78,159.1,46c-7.06,1.26-14.8,2.6-14.87,8.35,0,3.07,2.06,4.81,5,4.81,3.31,0,7.5-2.6,9.73-4.33Zm10.49,2.58v5.77c0,1.13,0,2.11,0,2.41l-8.46,0h-1.74V62.06c-4.26,2.66-8.26,4.31-13.76,4.31-8,0-11.9-5.28-11.83-10.88.12-9.3,8.32-14.19,25.49-16.08l0-3.47c0-3.16-2.65-4.89-6.39-4.89-4.92,0-7.67,2.45-9.74,5l-6.73-4.81c2.77-4.34,10.11-7.65,16.56-7.49,11.88.24,16.92,4.26,16.76,16.56l-.21,17Z"/><path class="cls-3" d="M14.46,7a6.35,6.35,0,0,1,4.71,2,6.56,6.56,0,0,1,2,4.82,6.57,6.57,0,0,1-2,4.78,6.36,6.36,0,0,1-4.67,2,6.5,6.5,0,0,1-4.78-2,6.81,6.81,0,0,1-2-4.9,6.41,6.41,0,0,1,2-4.7,6.41,6.41,0,0,1,4.71-2ZM9.22,24.13H19.71V65.75H9.22V24.13Z"/><path class="cls-2" d="M67.19,33l-8.58,4.72a14.52,14.52,0,0,0-4.8-3.51,14.24,14.24,0,0,0-5.52-1,12.89,12.89,0,0,0-9.37,3.48,11.76,11.76,0,0,0-3.55,8.84,11.41,11.41,0,0,0,3.44,8.58,12.44,12.44,0,0,0,9,3.33q6.91,0,10.77-4.73l8.12,5.56q-6.61,8.57-18.66,8.57-10.85,0-17-6.42a21.4,21.4,0,0,1,5.18-33.94,25,25,0,0,1,12-2.87,24.11,24.11,0,0,1,11,2.45,20.75,20.75,0,0,1,8,6.91Z"/><path class="cls-2" d="M111.87,24.13h3.71q0-8.18.27-9.68A7.92,7.92,0,0,1,118.72,9q2.48-2,7-2a21.7,21.7,0,0,1,7.35,1.49v8a14.09,14.09,0,0,0-3.71-.65,3.89,3.89,0,0,0-2.68.77,3.29,3.29,0,0,0-.61,2.37l0,5.2h6.62V33H126V65.75H115.58V33h-3.71V24.13Z"/><polygon class="cls-2" points="177.78 8.77 188.1 8.77 188.1 65.75 177.78 65.75 177.78 8.77 177.78 8.77"/></g></svg>