<svg fill="none" height="100%" viewBox="0 0 838 235" width="100%" xmlns="http://www.w3.org/2000/svg">
<g clip-path="url(#clip0_429_3066)">
<path d="M141.23 70.88V87.53H141.77C145.53 81.09 150.9 75.72 157.88 72.49C164.32 69.27 171.3 67.66 178.29 67.66C185.81 67.66 192.79 68.73 199.77 70.88C205.14 73.03 209.44 76.25 213.19 80.55C216.41 84.85 218.56 90.22 220.17 96.12C221.78 102.56 222.32 109.54 222.32 116.53V189.56H189.56V122.44C190.1 114.92 188.49 106.87 184.73 100.42C181.51 95.59 176.14 93.44 168.62 93.44C159.49 93.44 153.05 96.12 149.29 101.49C145.53 106.86 143.38 115.45 143.38 127.8V190.09H110.62V70.88H141.23Z" fill="currentcolor"></path>
<path d="M349.04 198.68C347.43 205.12 344.74 211.03 340.45 215.86C335.62 221.77 329.17 226.06 321.66 229.28C311.46 233.58 300.18 235.19 288.9 234.65C282.99 234.65 277.09 234.11 271.18 232.5C265.27 230.89 259.9 228.74 254.53 225.52C249.7 222.3 245.4 218.54 242.18 213.71C238.96 208.34 236.81 202.43 236.81 196.53H269.57C270.64 201.9 273.87 206.73 278.7 209.42C283.53 212.1 288.9 213.18 294.27 213.18C301.79 213.72 309.31 210.5 314.68 204.59C318.98 198.68 321.12 191.17 320.59 183.65V168.08H320.05C316.83 173.99 311.46 178.82 305.01 182.04C298.57 185.26 291.59 186.34 284.6 186.34C276.55 186.34 269.03 184.73 261.51 181.51C255.07 178.29 249.7 173.99 245.94 168.62C241.64 162.71 238.42 156.27 236.81 149.29C234.66 141.77 233.59 133.72 233.59 126.2C233.59 118.68 234.66 111.16 236.81 104.18C238.96 97.2 242.18 90.76 246.48 85.39C250.78 80.02 256.15 75.72 262.59 72.5C269.57 69.28 277.09 67.67 284.61 67.67C291.59 67.67 298.57 69.28 305.02 71.97C311.46 75.19 316.3 80.56 320.06 87.01H320.6V71.44H351.74V182.59C350.67 187.96 350.13 193.33 349.06 198.7M304.47 158.95C307.69 157.34 310.91 154.65 313.06 151.43C315.74 148.21 317.36 144.99 318.43 141.23C319.5 137.47 320.04 133.18 320.04 128.88C320.04 124.05 319.5 119.75 318.43 114.92C317.36 110.62 316.28 106.87 314.13 103.11C311.98 99.89 309.3 97.2 305.54 95.06C301.24 92.91 296.95 91.84 292.12 91.84C287.82 91.84 284.07 92.91 280.31 94.52C277.09 96.67 274.4 98.82 272.26 102.04C270.11 105.26 268.5 109.02 267.43 112.78C266.36 117.08 265.82 121.37 265.82 125.67C265.82 129.97 266.36 134.26 266.89 138.56C267.96 142.32 269.04 146.61 271.19 149.84C273.34 153.06 276.02 155.75 279.24 158.43C283 160.58 287.29 161.65 292.13 161.65C296.43 162.19 300.72 161.11 304.48 158.97" fill="currentcolor"></path>
<path d="M402.73 161.63C408.64 166.46 416.15 169.15 424.21 168.61C430.12 168.61 436.02 167 441.39 163.78C445.15 161.1 448.37 157.87 449.98 153.58H478.44C474.14 168.08 466.63 178.28 456.96 184.19C446.76 190.63 434.94 193.86 422.59 193.32C414 193.32 405.41 191.71 397.35 189.02C389.83 186.34 383.39 182.04 378.02 176.13C372.65 170.22 368.89 163.78 366.21 156.26C362.99 148.21 361.91 139.61 361.91 131.02C361.91 122.43 363.52 114.37 366.21 106.32C368.89 98.8 373.19 92.36 378.56 86.45C383.93 80.54 390.37 76.25 397.89 73.03C405.94 69.81 414 68.2 422.59 68.2C431.72 68.2 440.85 69.81 448.9 74.11C456.42 77.87 462.86 83.24 467.69 89.68C472.52 96.66 476.28 104.18 477.89 112.23C480.04 120.82 481.11 129.95 480.04 138.54H394.12C395.19 149.28 397.88 156.8 402.71 161.63M439.79 98.8C434.96 94.5 428.51 91.82 422.07 92.36C417.77 92.36 412.94 92.9 409.18 95.04C405.96 96.65 403.27 98.8 400.59 101.48C398.44 104.16 397.37 106.85 396.29 110.07C395.75 112.75 395.22 115.44 394.68 118.12H447.84C447.3 110.6 444.08 104.16 439.78 98.79" fill="currentcolor"></path>
<path d="M517.11 190.09L476.3 70.88H510.67L535.91 151.96H536.45L561.69 70.88H594.45L554.18 190.09H517.13H517.11Z" fill="currentcolor"></path>
<path d="M630.95 161.63C636.86 166.46 644.37 169.15 652.43 168.61C658.34 168.61 664.24 167 669.61 163.78C673.37 161.1 676.59 157.87 678.2 153.58H706.66C702.36 168.08 694.85 177.74 685.18 184.19C674.98 190.63 663.16 193.86 650.81 193.32C642.22 193.32 633.63 191.71 625.57 189.02C618.05 186.34 611.61 182.04 606.24 176.13C600.87 170.22 597.11 163.78 593.89 156.26C590.67 148.21 589.59 139.61 589.59 131.02C589.59 122.43 591.2 114.37 593.89 106.32C596.57 98.8 600.87 92.36 606.24 86.45C611.61 80.54 618.05 76.25 625.57 73.03C633.62 69.81 641.68 68.2 650.27 68.2C659.4 68.2 668.53 69.81 676.58 74.11C684.1 77.87 690 83.24 694.84 89.68C699.67 96.66 703.43 104.18 705.04 112.23C707.19 120.82 708.26 129.95 707.19 138.54H621.27C623.42 149.28 626.1 156.8 630.94 161.63M668 98.8C663.17 94.5 656.72 91.82 650.28 92.36C645.98 92.36 641.15 92.9 637.39 95.04C634.17 96.65 631.48 98.8 628.8 101.48C626.65 104.16 625.58 106.85 624.5 110.07C623.96 112.75 623.43 115.44 622.89 118.12H676.05C674.98 110.6 672.29 104.16 667.99 98.79" fill="currentcolor"></path>
<path d="M780.23 92.36C775.4 92.36 771.1 93.43 766.81 96.12C763.59 98.8 760.37 101.49 758.22 105.25C756.07 109.01 754.46 113.3 753.39 117.6C752.32 121.9 751.78 126.73 751.78 131.02C751.78 135.31 752.32 140.15 753.39 143.91C754.46 147.67 756.07 152.5 757.69 156.26C759.84 160.02 762.52 162.7 766.28 165.39C770.04 168.07 774.87 169.15 779.17 168.61C785.61 169.15 792.59 166.46 797.43 162.17C801.73 157.34 804.41 150.89 805.48 144.45H837.16C836.09 158.41 829.11 171.3 818.9 180.43C807.62 189.02 794.2 193.32 780.24 192.78C771.65 192.78 763.59 191.17 755.54 188.48C748.56 185.8 742.12 181.5 736.75 176.13C731.38 170.76 727.08 164.32 724.4 156.8C721.18 148.75 720.1 140.69 720.1 132.1C720.1 123.51 721.71 114.92 723.86 106.32C726.54 98.8 730.3 91.82 735.67 85.91C741.04 80 747.48 75.71 754.46 72.49C762.51 69.27 771.64 67.66 780.23 67.66C787.21 67.66 794.19 68.73 800.64 70.34C807.08 71.95 812.99 74.64 818.36 78.93C823.19 82.69 827.49 87.52 830.71 92.89C833.93 98.8 836.08 105.78 836.08 112.76H804.4C802.25 99.34 794.2 92.36 780.24 92.36" fill="currentcolor"></path>
<path d="M0 70.34V93.97L52.62 106.32V189.55H97.19V69.8H0V70.34Z" fill="#167EC1"></path>
<path d="M97.19 0H51.55V46.18H97.19V0Z" fill="#167EC1"></path>
</g>
<defs>
<clipPath id="clip0_429_3066">
<rect fill="white" height="234.76" width="837.15"></rect>
</clipPath>
</defs>
</svg>